<svg xmlns="http://www.w3.org/2000/svg" height="48px" viewBox="0 -960 960 960" width="48px" fill="#000000"><path d="M692.32-62.8q-52.12 0-88.99-36.78-36.87-36.77-36.87-88.85 0-9.53 5.76-33.81L277.91-392.7q-17.85 18.05-40.49 28.05t-48.25 10q-52.79 0-89.58-36.94-36.79-36.95-36.79-88.72 0-51.78 36.72-88.91 36.72-37.13 89.41-37.13 24.93 0 47.45 10.24 22.52 10.24 40.01 26.28l295.59-168.93q-2.76-7.76-4.14-16.33-1.38-8.56-1.38-16.52 0-52.24 36.82-89.53 36.83-37.29 89.24-37.29 50.5 0 87.83 37.4 37.32 37.4 37.32 88.9 0 51.5-37.45 88.33-37.46 36.82-87.77 36.82-25.72 0-47.9-9.74t-38.42-25.5L307.5-518.04q3 9.01 4.88 19.08 1.88 10.07 1.88 18.63 0 8.57-.88 16.96t-3.36 16.09l296.63 168.21q17.73-16.25 38.98-25.48 21.26-9.23 47.1-9.23 50.92 0 87.93 37.39 37.01 37.39 37.01 88.52 0 50.89-37.57 87.98-37.58 37.09-87.78 37.09Z"/></svg>